{"title":"The.Myth.2005.BRRip.720p.x264.Hun.Eng","uid":11429151,"size":6250402644,"categoryP":"video","categoryS":"hd___movies","magnet":"?xt=urn:btih:f2072e166dce48f54cd04cfd433d3637292bb994&amp;dn=The.Myth.2005.BRRip.720p.x264.Hun.Eng&amp;tr=udp%3A%2F%2Ftracker.openbittorrent.com%3A80&amp;tr=udp%3A%2F%2Fopen.demonii.com%3A1337&amp;tr=udp%3A%2F%2Ftracker.coppersurfer.tk%3A6969&amp;tr=udp%3A%2F%2Fexodus.desync.com%3A6969","seeders":0,"leechers":0,"uploader":"rinoceros","files":-1,"time":1415700395,"description":"The.Myth.2005.BRRip.720p.x264.Hun.Eng\n\nGeneral\nUnique ID                                : 254339127172122483469538008724759644662 (0xBF57EF218186AE6C91623108B97009F6)\nComplete name                            : F:The.Myth.2005.BRRip.720p.x264.Hun.EngThe Myth (2005) 720p.mkv\nFormat                                   : Matroska\nFormat version                           : Version 4 / Version 2\nFile size                                : 5.82 GiB\nDuration                                 : 2h 0mn\nOverall bit rate                         : 6 908 Kbps\nEncoded date                             : UTC 2014-11-11 07:29:11\nWriting application                      : mkvmerge v7.2.0 ('On Every Street') 64bit built on Sep 13 2014 15:52:10\nWriting library                          : libebml v1.3.0 + libmatroska v1.4.1\nDURATION                                 : 01:58:51.540000000\nNUMBER_OF_FRAMES                         : 865\nNUMBER_OF_BYTES                          : 25751\n_STATISTICS_WRITING_APP                  : mkvmerge v7.2.0 ('On Every Street') 64bit built on Sep 13 2014 15:52:10\n_STATISTICS_WRITING_DATE_UTC             : 2014-11-11 07:29:11\n_STATISTICS_TAGS                         : BPS DURATION NUMBER_OF_FRAMES NUMBER_OF_BYTES\n\nVideo\nID                                       : 1\nFormat                                   : AVC\nFormat/Info                              : Advanced Video Codec\nFormat profile                           : &lt;a class=&quot;__cf_email__&quot; href=&quot;/cdn-cgi/l/email-protection&quot; data-cfemail=&quot;0f476668674f433b213e&quot;&gt;[email&amp;#160;protected]&lt;/a&gt;&lt;script cf-hash='f9e31' type=&quot;text/javascript&quot;&gt;\n/* &lt;![CDATA[ */!function(){try{var t=&quot;currentScript&quot;in document?document.currentScript:function(){for(var t=document.getElementsByTagName(&quot;script&quot;),e=t.length;e--;)if(t[e].getAttribute(&quot;cf-hash&quot;))return t[e]}();if(t&amp;&amp;t.previousSibling){var e,r,n,i,c=t.previousSibling,a=c.getAttribute(&quot;data-cfemail&quot;);if(a){for(e=&quot;&quot;,r=parseInt(a.substr(0,2),16),n=2;a.length-n;n+=2)i=parseInt(a.substr(n,2),16)^r,e+=String.fromCharCode(i);e=document.createTextNode(e),c.parentNode.replaceChild(e,c)}}}catch(u){}}();/* ]]&gt; */&lt;/script&gt;\nFormat settings, CABAC                   : Yes\nFormat settings, ReFrames                : 9 frames\nCodec ID                                 : V_MPEG4/ISO/AVC\nDuration                                 : 2h 0mn\nBit rate                                 : 5 875 Kbps\nWidth                                    : 1 280 pixels\nHeight                                   : 548 pixels\nDisplay aspect ratio                     : 2.35:1\nFrame rate mode                          : Constant\nFrame rate                               : 24.000 fps\nColor space                              : YUV\nChroma subsampling                       : 4:2:0\nBit depth                                : 8 bits\nScan type                                : Progressive\nBits/(Pixel*Frame)                       : 0.349\nStream size                              : 4.95 GiB (85%)\nTitle                                    : The Myth (2005) 720p\nWriting library                          : x264 core 116 r2074 2641b9e\nEncoding settings                        : cabac=1 / ref=9 / deblock=1:-2:-1 / analyse=0x3:0x113 / me=umh / subme=10 / psy=1 / psy_rd=1.15:0.15 / mixed_ref=1 / me_range=32 / chroma_me=1 / trellis=2 / 8x8dct=1 / cqm=0 / deadzone=21,11 / fast_pskip=1 / chroma_qp_offset=-5 / threads=9 / sliced_threads=0 / nr=0 / decimate=1 / interlaced=0 / bluray_compat=0 / constrained_intra=0 / bframes=9 / b_pyramid=2 / b_adapt=2 / b_bias=0 / direct=1 / weightb=1 / open_gop=0 / weightp=2 / keyint=250 / keyint_min=24 / scenecut=40 / intra_refresh=0 / rc_lookahead=40 / rc=crf / mbtree=0 / crf=18.0 / qcomp=0.60 / qpmin=10 / qpmax=51 / qpstep=4 / vbv_maxrate=62500 / vbv_bufsize=50000 / crf_max=0.0 / nal_hrd=none / ip_ratio=1.40 / pb_ratio=1.30 / aq=1:0.90\nDefault                                  : Yes\nForced                                   : No\nDURATION                                 : 02:00:38.250000000\nNUMBER_OF_FRAMES                         : 173718\nNUMBER_OF_BYTES                          : 5437681245\n_STATISTICS_WRITING_APP                  : mkvmerge v7.2.0 ('On Every Street') 64bit built on Sep 13 2014 15:52:10\n_STATISTICS_WRITING_DATE_UTC             : 2014-11-11 07:29:11\n_STATISTICS_TAGS                         : BPS DURATION NUMBER_OF_FRAMES NUMBER_OF_BYTES\n\nAudio #1\nID                                       : 2\nFormat                                   : AC-3\nFormat/Info                              : Audio Coding 3\nMode extension                           : CM (complete main)\nFormat settings, Endianness              : Big\nCodec ID                                 : A_AC3\nDuration                                 : 2h 0mn\nBit rate mode                            : Constant\nBit rate                                 : 448 Kbps\nChannel(s)                               : 6 channels\nChannel positions                        : Front: L C R, Side: L R, LFE\nSampling rate                            : 48.0 KHz\nBit depth                                : 16 bits\nCompression mode                         : Lossy\nStream size                              : 387 MiB (6%)\nTitle                                    : 5.1\nLanguage                                 : Hungarian\nDefault                                  : Yes\nForced                                   : No\n\nAudio #2\nID                                       : 3\nFormat                                   : AC-3\nFormat/Info                              : Audio Coding 3\nMode extension                           : CM (complete main)\nFormat settings, Endianness              : Big\nCodec ID                                 : A_AC3\nDuration                                 : 2h 0mn\nBit rate mode                            : Constant\nBit rate                                 : 448 Kbps\nChannel(s)                               : 6 channels\nChannel positions                        : Front: L C R, Side: L R, LFE\nSampling rate                            : 48.0 KHz\nBit depth                                : 16 bits\nCompression mode                         : Lossy\nStream size                              : 387 MiB (6%)\nTitle                                    : 5.1\nLanguage                                 : English\nDefault                                  : No\nForced                                   : No\n\nText #1\nID                                       : 4\nFormat                                   : UTF-8\nCodec ID                                 : S_TEXT/UTF8\nCodec ID/Info                            : UTF-8 Plain Text\nTitle                                    : full\nLanguage                                 : Hungarian\nDefault                                  : No\nForced                                   : No\n\nText #2\nID                                       : 5\nFormat                                   : UTF-8\nCodec ID                                 : S_TEXT/UTF8\nCodec ID/Info                            : UTF-8 Plain Text\nTitle                                    : full\nLanguage                                 : English\nDefault                                  : No\nForced                                   : No\n &lt;a href=&quot;\nhttp://www.port.hu/jackie,_a_legenda_shen_hua/pls/fi/films.film_page?i_where=2&amp;i_film_id=76622&amp;i_city_id=-1&amp;i_county_id=-1&amp;i_topic_id=2&quot; rel=&quot;nofollow&quot; target=&quot;_NEW&quot;&gt;\nhttp://www.port.hu/jackie,_a_legenda_shen_hua/pls/fi/films.film_page?i_where=2&amp;i_film_id=76622&amp;i_city_id=-1&amp;i_county_id=-1&amp;i_topic_id=2&lt;/a&gt;","torrent":{"xt":"urn:btih:f2072e166dce48f54cd04cfd433d3637292bb994","amp;dn":"The.Myth.2005.BRRip.720p.x264.Hun.Eng","amp;tr":["udp%3A%2F%2Ftracker.openbittorrent.com%3A80","udp%3A%2F%2Fopen.demonii.com%3A1337","udp%3A%2F%2Ftracker.coppersurfer.tk%3A6969","udp%3A%2F%2Fexodus.desync.com%3A6969"],"infoHash":"f2072e166dce48f54cd04cfd433d3637292bb994","infoHashBuffer":{"type":"Buffer","data":[242,7,46,22,109,206,72,245,76,208,76,253,67,61,54,55,41,43,185,148]},"announce":[],"urlList":[]}}